Coordinates
version=1
nRows=49
nColumns=12
inDegrees=yes

Units are S.I. units (second, meters, Newtons, ...)
Angles are in degrees

endheader
time	SC_y	SC_z	SC_x	AC_y	AC_z	AC_x	GH_y	GH_z	GH_yy	EL_x	PS_y
       0.0              -11.81          19.33          50.84          50.62         -15.37          -15.5         -39.98         -6.719         -18.89          98.13          79.51
 9.892e-05              -11.81          19.33          50.84          50.62         -15.36         -15.49          -40.0         -6.711         -18.91          98.13           79.5
 0.0001978              -11.81          19.33          50.84          50.62         -15.36         -15.49         -40.01         -6.703         -18.93          98.12          79.49
 0.0002967              -11.81          19.33          50.83          50.62         -15.36         -15.49         -40.03         -6.695         -18.96          98.12          79.48
 0.0003957              -11.82          19.32          50.83          50.62         -15.36         -15.49         -40.04         -6.686         -18.98          98.12          79.47
 0.0004946              -11.82          19.32          50.83          50.62         -15.35         -15.49         -40.06         -6.676         -19.01          98.11          79.46
 0.0005935              -11.83          19.32          50.82          50.62         -15.35         -15.49         -40.08         -6.665         -19.03          98.11          79.45
 0.0006924              -11.83          19.32          50.82          50.62         -15.35         -15.48          -40.1         -6.654         -19.06          98.11          79.43
 0.0007913              -11.83          19.31          50.82          50.63         -15.34         -15.48         -40.12         -6.642         -19.09           98.1          79.42
 0.0008902              -11.84          19.31          50.81          50.63         -15.34         -15.48         -40.14          -6.63         -19.13           98.1           79.4
 0.0009892              -11.84          19.31          50.81          50.63         -15.33         -15.48         -40.17         -6.616         -19.16          98.09          79.39
  0.001088              -11.85           19.3           50.8          50.63         -15.33         -15.47         -40.19         -6.601          -19.2          98.09          79.37
  0.001187              -11.86           19.3           50.8          50.63         -15.32         -15.47         -40.22         -6.585         -19.24          98.08          79.35
  0.001286              -11.86          19.29          50.79          50.63         -15.32         -15.47         -40.25         -6.568         -19.29          98.08          79.33
  0.001385              -11.87          19.29          50.79          50.63         -15.31         -15.46         -40.29         -6.549         -19.34          98.07           79.3
  0.001484              -11.88          19.28          50.78          50.63         -15.31         -15.46         -40.32         -6.529         -19.39          98.06          79.28
  0.001583              -11.88          19.28          50.77          50.63          -15.3         -15.45         -40.36         -6.507         -19.45          98.06          79.25
  0.001682              -11.89          19.27          50.77          50.63         -15.29         -15.45          -40.4         -6.483         -19.51          98.05          79.22
   0.00178               -11.9          19.27          50.76          50.63         -15.28         -15.45         -40.45         -6.457         -19.58          98.04          79.19
  0.001879              -11.91          19.26          50.75          50.63         -15.27         -15.44          -40.5         -6.429         -19.65          98.03          79.16
  0.001978              -11.92          19.25          50.74          50.63         -15.26         -15.43         -40.56         -6.397         -19.73          98.02          79.12
  0.002077              -11.94          19.24          50.73          50.63         -15.25         -15.43         -40.62         -6.363         -19.82          98.01          79.08
  0.002176              -11.95          19.23          50.72          50.63         -15.24         -15.42         -40.69         -6.325         -19.92           98.0          79.03
  0.002275              -11.97          19.22           50.7          50.63         -15.23         -15.41         -40.76         -6.283         -20.03          97.98          78.98
  0.002374              -11.98          19.21          50.69          50.64         -15.21          -15.4         -40.84         -6.236         -20.15          97.97          78.92
  0.002473               -12.0           19.2          50.67          50.64          -15.2         -15.39         -40.94         -6.183         -20.29          97.95          78.86
  0.002572              -12.03          19.18          50.65          50.64         -15.18         -15.38         -41.04         -6.124         -20.44          97.93          78.78
  0.002671              -12.05          19.17          50.63          50.64         -15.16         -15.37         -41.16         -6.058         -20.62          97.91           78.7
   0.00277              -12.08          19.15          50.61          50.64         -15.13         -15.35         -41.29         -5.984         -20.81          97.88          78.61
  0.002869              -12.11          19.13          50.58          50.64         -15.11         -15.34         -41.44         -5.899         -21.03          97.85          78.51
  0.002967              -12.15           19.1          50.55          50.65         -15.07         -15.32         -41.62         -5.802         -21.28          97.82          78.39
  0.003066              -12.19          19.08          50.52          50.65         -15.04          -15.3         -41.81         -5.691         -21.57          97.78          78.25
  0.003165              -12.23          19.04          50.48          50.65          -15.0         -15.27         -42.04         -5.563         -21.91          97.74           78.1
  0.003264              -12.29          19.01          50.43          50.66         -14.95         -15.24         -42.31         -5.415         -22.29          97.69          77.91
  0.003363              -12.35          18.96          50.38          50.66          -14.9         -15.21         -42.62          -5.24         -22.75          97.63           77.7
  0.003462              -12.43          18.91          50.31          50.67         -14.83         -15.17         -42.98         -5.035         -23.28          97.57          77.45
  0.003561              -12.52          18.85          50.23          50.67         -14.75         -15.12         -43.42         -4.791         -23.92          97.48          77.15
   0.00366              -12.63          18.78          50.14          50.68         -14.66         -15.06         -43.94         -4.499         -24.68          97.39          76.79
  0.003759              -12.76          18.69          50.03          50.69         -14.55         -14.99         -44.57         -4.145         -25.61          97.27          76.36
  0.003858              -12.92          18.58          49.89           50.7         -14.41         -14.91         -45.34         -3.713         -26.73          97.12          75.83
  0.003957              -13.12          18.45          49.73          50.71         -14.24          -14.8         -46.29         -3.179         -28.12          96.95          75.17
  0.004056              -13.36          18.29          49.52          50.73         -14.03         -14.67         -47.48         -2.514         -29.86          96.72          74.36
  0.004154              -13.67          18.08          49.25          50.75         -13.76         -14.51         -48.97         -1.676         -32.04          96.44          73.33
  0.004253              -14.07          17.81          48.92          50.78         -13.43          -14.3         -50.87        -0.6106         -34.82          96.09          72.03
  0.004352              -14.57          17.47          48.49          50.81         -12.99         -14.03          -53.3         0.7529         -38.38          95.63          70.35
  0.004451              -15.22          17.04          47.94          50.86         -12.44         -13.69         -56.42          2.503         -42.94          95.05          68.21
   0.00455              -16.05          16.48          47.24          50.92         -11.73         -13.26          -60.4          4.738         -48.77           94.3          65.47
  0.004649              -17.09          15.78          46.35          50.99         -10.83         -12.71         -65.41          7.548          -56.1          93.37          62.03
  0.004748              -18.36          14.93          45.28          51.08         -9.745         -12.04         -71.51          10.97         -65.03          92.22          57.83
